<svg xmlns="http://www.w3.org/2000/svg" style="isolation:isolate" viewBox="0 0 506 253" width="506" height="253">
    <path d=" M 217.149 181.977 C 217.013 181.767 216.892 181.549 216.786 181.326 C 216.054 179.845 215.829 178.21 216.137 176.619 L 172.842 176.619 L 237.184 77.566 L 258.306 110.05 L 264.432 100.568 L 246.018 72.191 C 245.503 71.373 242.393 67 237.031 67 C 234.608 67 231.135 67.918 228.311 72.258 L 163.13 172.513 C 162.577 173.381 159.886 177.938 162.557 181.977 C 163.779 183.813 166.374 186 172.098 186 L 226.689 186 C 221.003 186 218.37 183.847 217.149 181.977 Z "
          fill="rgb(0,197,142)"/>
    <path d=" M 342.664 172.513 L 289.103 89.969 C 288.55 89.101 285.459 84.711 280.078 84.711 C 277.655 84.711 274.182 85.612 271.358 89.952 L 264.432 100.568 L 270.595 110.05 L 280.135 95.277 L 333.124 176.619 L 312.974 176.619 C 313.232 177.964 313.087 179.344 312.554 180.625 C 312.442 180.908 312.301 181.182 312.134 181.443 L 311.963 181.743 C 309.253 185.783 303.395 186 302.25 186 L 333.772 186 C 334.936 186 340.775 185.783 343.485 181.743 C 344.687 179.907 345.545 176.819 342.664 172.513 L 342.664 172.513 Z "
          fill="rgb(16,135,117)"/>
    <path d=" M 311.963 181.743 L 312.134 181.443 C 312.301 181.182 312.442 180.908 312.554 180.625 C 313.087 179.344 313.232 177.964 312.974 176.619 C 312.677 175.169 312.082 173.777 311.218 172.513 L 270.633 110.05 L 264.432 100.568 L 258.268 110.05 L 217.702 172.513 C 216.914 173.792 216.385 175.182 216.137 176.619 C 215.811 178.205 216.016 179.84 216.729 181.326 C 216.834 181.549 216.955 181.767 217.091 181.977 C 218.312 183.813 220.908 186 226.632 186 L 302.193 186 C 303.395 186 309.253 185.783 311.963 181.743 Z  M 264.432 119.531 L 301.525 176.619 L 227.357 176.619 L 264.432 119.531 Z "
          fill="rgb(47,73,94)"/>
</svg>
